<?xml version="1.0" standalone="no"?>
<!DOCTYPE svg PUBLIC "-//W3C//DTD SVG 20010904//EN"
 "http://www.w3.org/TR/2001/REC-SVG-20010904/DTD/svg10.dtd">
<svg version="1.0" xmlns="http://www.w3.org/2000/svg"
 width="1303.000000pt" height="1303.000000pt" viewBox="0 0 1303.000000 1303.000000"
 preserveAspectRatio="xMidYMid meet">

<g transform="translate(0.000000,1303.000000) scale(0.100000,-0.100000)"
fill="#000000" stroke="none">
<path d="M7738 10710 c-320 -31 -656 -150 -917 -324 -330 -220 -582 -517 -776
-911 -131 -266 -192 -455 -231 -710 -22 -149 -23 -451 0 -606 61 -430 238
-839 505 -1171 91 -114 189 -188 248 -188 41 0 57 27 50 86 -6 61 -34 109
-133 231 -241 297 -389 626 -459 1023 -22 126 -31 417 -16 549 28 259 89 459
221 726 206 419 436 698 749 907 647 432 1496 369 2209 -164 190 -142 375
-328 517 -518 73 -98 76 -98 25 -5 -306 567 -864 959 -1506 1059 -124 20 -369
28 -486 16z"/>
<path d="M7130 8290 c-52 -56 -50 -81 17 -168 183 -242 490 -473 842 -633 231
-105 391 -150 605 -169 346 -30 705 70 1279 355 277 138 481 214 707 262 119
25 369 25 459 0 113 -31 190 -75 271 -157 105 -105 166 -229 205 -416 l14 -69
-6 80 c-20 287 -153 510 -363 614 -130 64 -246 85 -435 78 -255 -10 -408 -54
-770 -222 -466 -216 -717 -311 -948 -357 -89 -18 -146 -22 -277 -22 -316 1
-512 67 -882 297 -215 134 -388 282 -573 490 -71 79 -99 86 -145 37z"/>
<path d="M10975 7294 c-431 -70 -826 -463 -1419 -1414 -60 -96 -199 -323 -309
-505 -293 -484 -444 -724 -602 -960 -394 -589 -737 -983 -1086 -1251 -151
-115 -571 -314 -884 -419 -856 -285 -1683 -177 -3320 438 -246 92 -659 254
-860 337 -173 71 -246 84 -305 53 -110 -57 -34 -181 172 -281 59 -29 194 -91
300 -138 1015 -451 1825 -692 2618 -780 218 -25 662 -25 860 -1 994 121 1726
606 2454 1627 233 326 407 614 817 1351 536 964 694 1205 973 1485 217 217
389 319 615 366 117 25 292 20 416 -11 58 -14 75 -16 61 -6 -28 21 -155 72
-222 90 -60 17 -225 27 -279 19z"/>
</g>
</svg>
